<svg width="25" height="25" viewBox="0 0 25 25" fill="none" xmlns="http://www.w3.org/2000/svg">
<path d="M19.8471 12.437C19.988 12.5792 20.067 12.7713 20.067 12.9714C20.067 13.1716 19.988 13.3636 19.8471 13.5058L12.1503 21.1839C11.1657 22.1685 9.83022 22.7217 8.43777 22.7217C7.04531 22.7217 5.70988 22.1685 4.72527 21.1839C3.74065 20.1993 3.1875 18.8639 3.1875 17.4714C3.1875 16.079 3.74065 14.7435 4.72527 13.7589L14.0346 4.32767C14.3791 3.9645 14.7927 3.67395 15.2512 3.47316C15.7097 3.27237 16.2038 3.1654 16.7043 3.15855C17.2047 3.15171 17.7015 3.24512 18.1654 3.4333C18.6292 3.62147 19.0506 3.90059 19.4049 4.25421C19.7591 4.60783 20.039 5.02878 20.228 5.49226C20.417 5.95574 20.5112 6.45237 20.5053 6.95287C20.4993 7.45336 20.3932 7.9476 20.1932 8.40645C19.9933 8.8653 19.7035 9.27947 19.3409 9.62455L10.0315 19.0558C9.82343 19.2671 9.57531 19.4348 9.30166 19.5491C9.02801 19.6634 8.73432 19.722 8.43777 19.7214C7.99196 19.7225 7.55587 19.5912 7.18484 19.344C6.81381 19.0968 6.52457 18.745 6.35382 18.3332C6.18306 17.9214 6.1385 17.4681 6.22577 17.031C6.31305 16.5938 6.52823 16.1924 6.84402 15.8777L14.6534 7.94642C14.721 7.87062 14.8032 7.80934 14.8952 7.76628C14.9872 7.72322 15.0869 7.69929 15.1884 7.69593C15.2899 7.69257 15.391 7.70986 15.4856 7.74675C15.5803 7.78364 15.6664 7.83935 15.7388 7.91052C15.8113 7.98169 15.8685 8.06682 15.9071 8.16077C15.9456 8.25471 15.9647 8.35551 15.9631 8.45705C15.9616 8.55858 15.9394 8.65875 15.898 8.75146C15.8566 8.84418 15.7967 8.92752 15.7221 8.99642L7.91277 16.937C7.84168 17.0067 7.78517 17.0899 7.74654 17.1816C7.70791 17.2734 7.68793 17.3719 7.68777 17.4714C7.68664 17.671 7.7641 17.8629 7.90339 18.0058C8.04736 18.1434 8.23861 18.2206 8.43777 18.2214C8.6373 18.2225 8.82927 18.1451 8.97214 18.0058L18.2721 8.56517C18.4834 8.35709 18.6511 8.10896 18.7654 7.83532C18.8797 7.56167 18.9383 7.26798 18.9378 6.97142C18.9389 6.52561 18.8075 6.08952 18.5603 5.7185C18.3132 5.34747 17.9614 5.05823 17.5496 4.88747C17.1377 4.71672 16.6845 4.67215 16.2473 4.75943C15.8101 4.8467 15.4087 5.06189 15.094 5.37767L5.79402 14.8183C5.43084 15.1627 5.1403 15.5764 4.93951 16.0349C4.73872 16.4934 4.63175 16.9874 4.6249 17.4879C4.61805 17.9884 4.71147 18.4852 4.89964 18.949C5.08782 19.4128 5.36694 19.8343 5.72055 20.1885C6.07417 20.5428 6.49513 20.8226 6.95861 21.0116C7.42209 21.2006 7.91871 21.2949 8.41921 21.2889C8.91971 21.283 9.41395 21.1769 9.8728 20.9769C10.3316 20.7769 10.7458 20.4871 11.0909 20.1245L18.7784 12.437C18.9206 12.2962 19.1126 12.2172 19.3128 12.2172C19.5129 12.2172 19.7049 12.2962 19.8471 12.437Z" fill="#7B888E"/>
</svg>
