<svg width="25" height="25" viewBox="0 0 25 25" fill="none" xmlns="http://www.w3.org/2000/svg">
<path d="M12.1884 17.4707C13.3818 17.4707 14.5264 16.9966 15.3703 16.1527C16.2142 15.3088 16.6884 14.1642 16.6884 12.9707V6.9707C16.6884 5.77723 16.2142 4.63264 15.3703 3.78872C14.5264 2.94481 13.3818 2.4707 12.1884 2.4707C10.9949 2.4707 9.85029 2.94481 9.00637 3.78872C8.16246 4.63264 7.68835 5.77723 7.68835 6.9707V12.9707C7.68835 14.1642 8.16246 15.3088 9.00637 16.1527C9.85029 16.9966 10.9949 17.4707 12.1884 17.4707ZM9.18835 6.9707C9.18835 6.17505 9.50443 5.41199 10.067 4.84938C10.6296 4.28677 11.3927 3.9707 12.1884 3.9707C12.984 3.9707 13.7471 4.28677 14.3097 4.84938C14.8723 5.41199 15.1884 6.17505 15.1884 6.9707V12.9707C15.1884 13.7664 14.8723 14.5294 14.3097 15.092C13.7471 15.6546 12.984 15.9707 12.1884 15.9707C11.3927 15.9707 10.6296 15.6546 10.067 15.092C9.50443 14.5294 9.18835 13.7664 9.18835 12.9707V6.9707ZM19.6415 13.8051C19.4523 15.5105 18.6834 17.0993 17.4633 18.3058C16.2432 19.5123 14.6458 20.2633 12.9384 20.4332V22.7207C12.9384 22.9196 12.8593 23.1104 12.7187 23.251C12.578 23.3917 12.3873 23.4707 12.1884 23.4707C11.9894 23.4707 11.7987 23.3917 11.658 23.251C11.5174 23.1104 11.4384 22.9196 11.4384 22.7207V20.4332C9.7309 20.2633 8.13355 19.5123 6.91342 18.3058C5.69329 17.0993 4.92437 15.5105 4.73523 13.8051C4.72415 13.7072 4.73246 13.6081 4.75967 13.5134C4.78689 13.4188 4.83249 13.3304 4.89386 13.2533C4.95524 13.1763 5.03119 13.1121 5.11737 13.0644C5.20356 13.0167 5.29829 12.9865 5.39617 12.9754C5.49404 12.9643 5.59314 12.9726 5.68781 12.9998C5.78247 13.0271 5.87085 13.0727 5.9479 13.134C6.02494 13.1954 6.08914 13.2713 6.13683 13.3575C6.18452 13.4437 6.21477 13.5385 6.22585 13.6363C6.39054 15.1024 7.08962 16.4565 8.18952 17.4397C9.28942 18.423 10.713 18.9666 12.1884 18.9666C13.6637 18.9666 15.0873 18.423 16.1872 17.4397C17.2871 16.4565 17.9862 15.1024 18.1509 13.6363C18.1732 13.4387 18.2732 13.258 18.4288 13.134C18.5059 13.0727 18.5942 13.0271 18.6889 12.9998C18.7836 12.9726 18.8827 12.9643 18.9805 12.9754C19.0784 12.9865 19.1732 13.0167 19.2593 13.0644C19.3455 13.1121 19.4215 13.1763 19.4828 13.2533C19.5442 13.3304 19.5898 13.4188 19.617 13.5134C19.6443 13.6081 19.6526 13.7072 19.6415 13.8051Z" fill="#7B888E"/>
</svg>
