<svg width="20" height="20" viewBox="0 0 20 20" fill="none" xmlns="http://www.w3.org/2000/svg">
<path d="M16.2326 8.74952C16.2388 7.10083 15.5909 5.51696 14.431 4.3453C13.271 3.17364 11.6938 2.50986 10.0451 2.49952H9.9982C9.17846 2.50055 8.36696 2.66302 7.61001 2.97767C6.85307 3.29232 6.16551 3.75298 5.58659 4.33334C5.00768 4.91371 4.54874 5.60242 4.23599 6.36015C3.92324 7.11788 3.7628 7.92979 3.76383 8.74952C3.76383 11.4292 3.20914 12.9448 2.7482 13.7417C2.63737 13.9325 2.57835 14.1489 2.57698 14.3696C2.5756 14.5902 2.63194 14.8074 2.74039 14.9995C2.84977 15.1906 3.00797 15.3491 3.19878 15.459C3.3896 15.5688 3.60617 15.6259 3.82633 15.6245H6.8732C6.8732 16.4533 7.20244 17.2482 7.78849 17.8342C8.37454 18.4203 9.1694 18.7495 9.9982 18.7495C10.827 18.7495 11.6219 18.4203 12.2079 17.8342C12.794 17.2482 13.1232 16.4533 13.1232 15.6245H16.1701C16.3902 15.6259 16.6068 15.5688 16.7976 15.459C16.9884 15.3491 17.1466 15.1906 17.256 14.9995C17.3645 14.8074 17.4208 14.5902 17.4194 14.3696C17.4181 14.1489 17.359 13.9325 17.2482 13.7417C16.7873 12.9448 16.2326 11.4292 16.2326 8.74952ZM9.9982 17.4995C9.50155 17.4975 9.02583 17.2993 8.67465 16.9481C8.32346 16.5969 8.12526 16.1212 8.1232 15.6245H11.8732C11.8711 16.1212 11.6729 16.5969 11.3218 16.9481C10.9706 17.2993 10.4948 17.4975 9.9982 17.4995ZM3.82633 14.3745C4.36539 13.4448 5.01383 11.7105 5.01383 8.74952C5.01177 8.09365 5.13918 7.44383 5.38874 6.83729C5.63831 6.23075 6.00513 5.67943 6.46818 5.21493C6.93123 4.75044 7.48139 4.38189 8.08715 4.13043C8.6929 3.87896 9.34233 3.74952 9.9982 3.74952H10.0373C10.6895 3.75107 11.3348 3.88243 11.9357 4.13593C12.5366 4.38944 13.081 4.76002 13.5373 5.22609C13.998 5.68949 14.3629 6.23923 14.6109 6.84384C14.8589 7.44844 14.9852 8.09603 14.9826 8.74952C14.9826 11.7105 15.631 13.4448 16.1701 14.3745H3.82633ZM17.5685 5.72609C17.4823 5.76448 17.3894 5.78571 17.2951 5.78859C17.1776 5.78961 17.0622 5.75707 16.9626 5.6948C16.8629 5.63252 16.7831 5.54309 16.7326 5.43702C16.1156 4.19551 15.1698 3.14705 13.9982 2.40577C13.9284 2.36217 13.8679 2.30525 13.8202 2.23827C13.7724 2.17129 13.7383 2.09556 13.7198 2.01539C13.7013 1.93523 13.6988 1.85221 13.7124 1.77107C13.7259 1.68993 13.7554 1.61226 13.799 1.54249C13.8426 1.47273 13.8995 1.41223 13.9665 1.36447C14.0335 1.3167 14.1092 1.28259 14.1894 1.26409C14.2695 1.24559 14.3525 1.24306 14.4337 1.25665C14.5148 1.27024 14.5925 1.29967 14.6623 1.34327C16.0335 2.2067 17.1372 3.43485 17.8498 4.89015C17.923 5.03836 17.9345 5.20952 17.8817 5.36619C17.829 5.52286 17.7164 5.65226 17.5685 5.72609ZM2.70133 5.78859C2.60699 5.78571 2.51411 5.76448 2.42789 5.72609C2.28 5.65226 2.16737 5.52286 2.11466 5.36619C2.06195 5.20952 2.07345 5.03836 2.14664 4.89015C2.85923 3.43485 3.96294 2.2067 5.33414 1.34327C5.47503 1.25521 5.64514 1.22673 5.80704 1.26409C5.8872 1.28259 5.96294 1.3167 6.02992 1.36447C6.0969 1.41223 6.15382 1.47273 6.19742 1.54249C6.24102 1.61226 6.27046 1.68993 6.28404 1.77107C6.29763 1.85221 6.2951 1.93523 6.2766 2.01539C6.2581 2.09556 6.224 2.17129 6.17623 2.23827C6.12846 2.30525 6.06797 2.36217 5.9982 2.40577C4.82662 3.14705 3.88085 4.19551 3.26383 5.43702C3.21326 5.54309 3.13346 5.63252 3.03382 5.6948C2.93418 5.75707 2.81883 5.78961 2.70133 5.78859Z" fill="#5A717C"/>
</svg>
