<svg width="25" height="25" viewBox="0 0 25 25" fill="none" xmlns="http://www.w3.org/2000/svg">
<path d="M21.9523 6.2843L18.9523 3.2843C18.8101 3.14346 18.6181 3.06445 18.418 3.06445C18.2178 3.06445 18.0258 3.14346 17.8836 3.2843L8.88359 12.2843C8.7443 12.4272 8.66684 12.6191 8.66797 12.8187V15.8187C8.66797 16.0176 8.74699 16.2084 8.88764 16.349C9.02829 16.4897 9.21906 16.5687 9.41797 16.5687H12.418C12.6175 16.5698 12.8095 16.4923 12.9523 16.353L21.9523 7.35305C22.0932 7.21085 22.1722 7.01881 22.1722 6.81867C22.1722 6.61854 22.0932 6.42649 21.9523 6.2843ZM12.1086 15.0687H10.168V13.128L16.168 7.12805L18.1086 9.06867L12.1086 15.0687ZM19.168 8.0093L17.2273 6.06867L18.418 4.87805L20.3586 6.81867L19.168 8.0093ZM21.418 12.0687V20.3187C21.418 20.7165 21.2599 21.098 20.9786 21.3793C20.6973 21.6606 20.3158 21.8187 19.918 21.8187H4.91797C4.52014 21.8187 4.13861 21.6606 3.85731 21.3793C3.576 21.098 3.41797 20.7165 3.41797 20.3187V5.31867C3.41797 4.92085 3.576 4.53932 3.85731 4.25801C4.13861 3.97671 4.52014 3.81867 4.91797 3.81867H13.168C13.3669 3.81867 13.5576 3.89769 13.6983 4.03834C13.839 4.17899 13.918 4.36976 13.918 4.56867C13.918 4.76758 13.839 4.95835 13.6983 5.099C13.5576 5.23965 13.3669 5.31867 13.168 5.31867H4.91797V20.3187H19.918V12.0687C19.918 11.8698 19.997 11.679 20.1376 11.5383C20.2783 11.3977 20.4691 11.3187 20.668 11.3187C20.8669 11.3187 21.0576 11.3977 21.1983 11.5383C21.339 11.679 21.418 11.8698 21.418 12.0687Z" fill="#AFB9C0"/>
</svg>
