<svg width="24" height="24" viewBox="0 0 24 24" fill="none" xmlns="http://www.w3.org/2000/svg">
<path d="M21.5328 20.466L17.4734 16.416C18.9061 14.7103 19.625 12.5174 19.4801 10.2945C19.3353 8.07167 18.3379 5.99057 16.6959 4.48525C15.0539 2.97992 12.8942 2.16661 10.6672 2.21493C8.44016 2.26324 6.31776 3.16947 4.74264 4.74459C3.16751 6.31971 2.26129 8.44212 2.21297 10.6692C2.16466 12.8962 2.97797 15.0559 4.48329 16.6979C5.98862 18.3398 8.06972 19.3372 10.2926 19.4821C12.5154 19.627 14.7084 18.9081 16.4141 17.4754L20.4641 21.5348C20.6074 21.6734 20.799 21.7509 20.9984 21.7509C21.1978 21.7509 21.3895 21.6734 21.5328 21.5348C21.6736 21.3926 21.7527 21.2005 21.7527 21.0004C21.7527 20.8003 21.6736 20.6082 21.5328 20.466ZM3.74844 10.8754C3.74844 9.4662 4.16631 8.08865 4.94922 6.91695C5.73212 5.74525 6.84489 4.83202 8.14682 4.29275C9.44874 3.75347 10.8813 3.61237 12.2635 3.88729C13.6456 4.16221 14.9151 4.8408 15.9116 5.83725C16.908 6.8337 17.5866 8.10326 17.8615 9.48537C18.1365 10.8675 17.9954 12.3001 17.4561 13.602C16.9168 14.9039 16.0036 16.0167 14.8319 16.7996C13.6602 17.5825 12.2826 18.0004 10.8734 18.0004C8.98453 17.9979 7.1737 17.2464 5.83804 15.9108C4.50238 14.5751 3.75092 12.7643 3.74844 10.8754Z" fill="#5E6D78"/>
</svg>
