<svg width="32" height="33" viewBox="0 0 32 33" fill="none" xmlns="http://www.w3.org/2000/svg">
<path d="M28.463 6.80032L21.913 30.0378C21.8038 30.4313 21.576 30.7816 21.2607 31.041C20.9453 31.3005 20.5577 31.4565 20.1505 31.4878H19.9755C19.5988 31.487 19.23 31.3798 18.9116 31.1785C18.5931 30.9773 18.338 30.6902 18.1755 30.3503L13.713 20.9253C13.6692 20.8307 13.6553 20.7249 13.6732 20.6222C13.6911 20.5195 13.7398 20.4246 13.813 20.3503L20.2255 13.9378C20.3259 13.8469 20.4068 13.7365 20.4632 13.6133C20.5196 13.4901 20.5504 13.3568 20.5538 13.2214C20.5571 13.086 20.5329 12.9513 20.4826 12.8255C20.4323 12.6997 20.357 12.5855 20.2612 12.4897C20.1654 12.3939 20.0511 12.3186 19.9254 12.2683C19.7996 12.218 19.6649 12.1937 19.5295 12.1971C19.394 12.2004 19.2607 12.2312 19.1375 12.2877C19.0144 12.3441 18.904 12.4249 18.813 12.5253L12.4005 18.9503C12.3262 19.0235 12.2314 19.0723 12.1287 19.0902C12.0259 19.108 11.9202 19.0941 11.8255 19.0503L2.45053 14.6128C2.0836 14.4395 1.77554 14.1624 1.56448 13.8158C1.35341 13.4692 1.24861 13.0684 1.26303 12.6628C1.28516 12.2453 1.43841 11.8453 1.70099 11.5199C1.96356 11.1945 2.32208 10.9602 2.72553 10.8503L26.013 4.28782C26.4203 4.1715 26.8541 4.18751 27.2517 4.33353C27.6493 4.47955 27.9903 4.74805 28.2255 5.10032C28.3834 5.35066 28.4862 5.63169 28.5271 5.92478C28.568 6.21787 28.5462 6.51632 28.463 6.80032Z" fill="black"/>
<path d="M28.463 6.80032L21.913 30.0378C21.8038 30.4313 21.576 30.7816 21.2607 31.041C20.9453 31.3005 20.5577 31.4565 20.1505 31.4878H19.9755C19.5988 31.487 19.23 31.3798 18.9116 31.1785C18.5931 30.9773 18.338 30.6902 18.1755 30.3503L13.713 20.9253C13.6692 20.8307 13.6553 20.7249 13.6732 20.6222C13.6911 20.5195 13.7398 20.4246 13.813 20.3503L20.2255 13.9378C20.3259 13.8469 20.4068 13.7365 20.4632 13.6133C20.5196 13.4901 20.5504 13.3568 20.5538 13.2214C20.5571 13.086 20.5329 12.9513 20.4826 12.8255C20.4323 12.6997 20.357 12.5855 20.2612 12.4897C20.1654 12.3939 20.0511 12.3186 19.9254 12.2683C19.7996 12.218 19.6649 12.1937 19.5295 12.1971C19.394 12.2004 19.2607 12.2312 19.1375 12.2877C19.0144 12.3441 18.904 12.4249 18.813 12.5253L12.4005 18.9503C12.3262 19.0235 12.2314 19.0723 12.1287 19.0902C12.0259 19.108 11.9202 19.0941 11.8255 19.0503L2.45053 14.6128C2.0836 14.4395 1.77554 14.1624 1.56448 13.8158C1.35341 13.4692 1.24861 13.0684 1.26303 12.6628C1.28516 12.2453 1.43841 11.8453 1.70099 11.5199C1.96356 11.1945 2.32208 10.9602 2.72553 10.8503L26.013 4.28782C26.4203 4.1715 26.8541 4.18751 27.2517 4.33353C27.6493 4.47955 27.9903 4.74805 28.2255 5.10032C28.3834 5.35066 28.4862 5.63169 28.5271 5.92478C28.568 6.21787 28.5462 6.51632 28.463 6.80032Z" fill="url(#paint0_linear_1213_4728)"/>
<defs>
<linearGradient id="paint0_linear_1213_4728" x1="14.9044" y1="4.21094" x2="14.9044" y2="31.4878" gradientUnits="userSpaceOnUse">
<stop stop-color="#7777F8"/>
<stop offset="1" stop-color="#E277F8"/>
</linearGradient>
</defs>
</svg>
