<svg width="33" height="33" viewBox="0 0 33 33" fill="none" xmlns="http://www.w3.org/2000/svg">
<path d="M28.6505 7.00735L22.1005 30.2449C21.9913 30.6383 21.7635 30.9886 21.4482 31.2481C21.1328 31.5075 20.7452 31.6635 20.338 31.6949H20.163C19.7863 31.694 19.4175 31.5868 19.0991 31.3856C18.7806 31.1843 18.5255 30.8972 18.363 30.5574L13.9005 21.1324C13.8567 21.0377 13.8428 20.932 13.8607 20.8292C13.8786 20.7265 13.9273 20.6316 14.0005 20.5574L20.413 14.1449C20.5134 14.0539 20.5943 13.9435 20.6507 13.8203C20.7071 13.6972 20.7379 13.5638 20.7413 13.4284C20.7446 13.293 20.7204 13.1583 20.6701 13.0325C20.6198 12.9067 20.5445 12.7925 20.4487 12.6967C20.3529 12.6009 20.2386 12.5256 20.1129 12.4753C19.9871 12.425 19.8524 12.4008 19.717 12.4041C19.5815 12.4074 19.4482 12.4383 19.325 12.4947C19.2019 12.5511 19.0915 12.632 19.0005 12.7324L12.588 19.1574C12.5137 19.2305 12.4189 19.2793 12.3162 19.2972C12.2134 19.3151 12.1077 19.3012 12.013 19.2574L2.63803 14.8199C2.2711 14.6465 1.96304 14.3694 1.75198 14.0229C1.54091 13.6763 1.43611 13.2754 1.45053 12.8699C1.47266 12.4523 1.62591 12.0524 1.88849 11.7269C2.15106 11.4015 2.50958 11.1672 2.91303 11.0574L26.2005 4.49485C26.6078 4.37853 27.0416 4.39454 27.4392 4.54056C27.8368 4.68658 28.1778 4.95508 28.413 5.30735C28.5709 5.55769 28.6737 5.83872 28.7146 6.13181C28.7555 6.4249 28.7337 6.72335 28.6505 7.00735Z" fill="black"/>
<path d="M28.6505 7.00735L22.1005 30.2449C21.9913 30.6383 21.7635 30.9886 21.4482 31.2481C21.1328 31.5075 20.7452 31.6635 20.338 31.6949H20.163C19.7863 31.694 19.4175 31.5868 19.0991 31.3856C18.7806 31.1843 18.5255 30.8972 18.363 30.5574L13.9005 21.1324C13.8567 21.0377 13.8428 20.932 13.8607 20.8292C13.8786 20.7265 13.9273 20.6316 14.0005 20.5574L20.413 14.1449C20.5134 14.0539 20.5943 13.9435 20.6507 13.8203C20.7071 13.6972 20.7379 13.5638 20.7413 13.4284C20.7446 13.293 20.7204 13.1583 20.6701 13.0325C20.6198 12.9067 20.5445 12.7925 20.4487 12.6967C20.3529 12.6009 20.2386 12.5256 20.1129 12.4753C19.9871 12.425 19.8524 12.4008 19.717 12.4041C19.5815 12.4074 19.4482 12.4383 19.325 12.4947C19.2019 12.5511 19.0915 12.632 19.0005 12.7324L12.588 19.1574C12.5137 19.2305 12.4189 19.2793 12.3162 19.2972C12.2134 19.3151 12.1077 19.3012 12.013 19.2574L2.63803 14.8199C2.2711 14.6465 1.96304 14.3694 1.75198 14.0229C1.54091 13.6763 1.43611 13.2754 1.45053 12.8699C1.47266 12.4523 1.62591 12.0524 1.88849 11.7269C2.15106 11.4015 2.50958 11.1672 2.91303 11.0574L26.2005 4.49485C26.6078 4.37853 27.0416 4.39454 27.4392 4.54056C27.8368 4.68658 28.1778 4.95508 28.413 5.30735C28.5709 5.55769 28.6737 5.83872 28.7146 6.13181C28.7555 6.4249 28.7337 6.72335 28.6505 7.00735Z" fill="url(#paint0_linear_1213_8305)"/>
<defs>
<linearGradient id="paint0_linear_1213_8305" x1="15.0919" y1="4.41797" x2="15.0919" y2="31.6949" gradientUnits="userSpaceOnUse">
<stop stop-color="#FF4835"/>
<stop offset="1" stop-color="#FF00E6"/>
</linearGradient>
</defs>
</svg>
